<svg xmlns="http://www.w3.org/2000/svg" viewBox="0 0 511.99 511.86">
  <path d="M437.13,74.94C337.3-24.89,174.82-24.89,75,74.94A256.06,256.06,0,0,0,437.12,437.05C537,337.23,537,174.78,437.13,74.94ZM409.08,409c-84.38,84.37-221.67,84.37-306,0a216.42,216.42,0,0,1,0-306c84.37-84.37,221.67-84.35,306,0S493.43,324.65,409.08,409Z" transform="translate(0 -0.07)"/>
  <path d="M341.52,310.83l-56.15-56.07,56.15-56.08a19.83,19.83,0,1,0-28-28.06l-56.19,56.11L201.1,170.62a19.84,19.84,0,1,0-28,28.06l56.16,56.08-56.16,56.07a19.84,19.84,0,0,0,28,28.06l56.19-56.11,56.19,56.11a19.83,19.83,0,1,0,28-28.06Z" transform="translate(0 -0.07)"/>
</svg>
