<svg xmlns="http://www.w3.org/2000/svg" viewBox="0 0 1069.26 1066.55">
<title>Asset 1</title><g id="Layer_2" data-name="Layer 2">
<g id="Layer_1-2" data-name="Layer 1">
<path d="M1069.26,1066.55H0V0H1069.26ZM1037.77,28.33H31.5v1007H1037.77Z"/>
<path d="M547.17,922.78h-404V134c128.28,0,254.29-.35,380.3.79,8.48.07,16.86,11.36,25.29,17.43-9,7.48-17.75,21-27.1,21.43-47,2.21-94.18,1-145.17,1V509.11c141.6-.25,276.79-16.1,395.23-98.95,63.93-44.72,99.41-105.85,93-187.18-2-25.55-.31-51.38-.31-84.76l63.2-3.59V924.3H866.44V403.16c-78,39-150.84,86.71-230.76,112.15C554,541.29,465.43,545.39,376,559.68V880C430,909.65,500.68,860.8,547.17,922.78ZM303.94,178H210.55V509.82h93.39ZM302.82,885.5V555.38H209.54V885.5Z"/>
</g>
</g>
</svg>