<?xml version="1.0" standalone="no"?>
<!DOCTYPE svg PUBLIC "-//W3C//DTD SVG 20010904//EN"
 "http://www.w3.org/TR/2001/REC-SVG-20010904/DTD/svg10.dtd">
<svg version="1.0" xmlns="http://www.w3.org/2000/svg"
 width="1070.000000pt" height="1068.000000pt" viewBox="0 0 1070.000000 1068.000000"
 preserveAspectRatio="xMidYMid meet">

<g transform="translate(0.000000,1068.000000) scale(0.100000,-0.100000)"
fill="#000000" stroke="none">
<path d="M2 5338 l3 -5333 5348 -3 5347 -2 0 5335 0 5335 -5350 0 -5350 0 2
-5332z m10378 17 l0 -5035 -5030 0 -5030 0 0 5035 0 5035 5030 0 5030 0 0
-5035z"/>
<path d="M1958 9332 l-518 -2 0 -3945 0 -3945 2020 0 c1921 0 2020 1 2011 18
-19 35 -168 169 -226 204 -79 47 -187 85 -295 103 -70 13 -167 15 -491 13
-387 -3 -407 -2 -489 19 -47 12 -111 33 -143 47 l-57 26 2 1602 3 1603 150 22
c83 12 346 47 585 78 963 123 1330 188 1745 310 462 136 893 332 1685 765 328
179 710 380 723 380 4 0 7 -1170 7 -2600 l0 -2600 310 0 310 0 0 3944 c0 2170
-3 3947 -7 3949 -6 4 -620 -28 -629 -32 -1 -1 -5 -136 -9 -301 -5 -208 -3
-372 6 -534 14 -260 7 -403 -31 -600 -85 -439 -343 -845 -738 -1164 -114 -91
-368 -262 -516 -347 -739 -423 -1559 -649 -2646 -730 -165 -12 -743 -34 -912
-35 l-38 0 0 1669 0 1669 728 4 c850 4 761 -9 907 138 l90 91 -31 27 c-125
108 -156 131 -186 140 -33 10 -2242 20 -3320 14z m1082 -2097 l0 -1655 -460 0
-460 0 0 1655 0 1655 460 0 460 0 0 -1655z m-10 -3765 l0 -1650 -460 0 -460 0
0 1650 0 1650 460 0 460 0 0 -1650z"/>
</g>
</svg>
